<svg width="200" height="62" viewBox="0 0 200 62" fill="none" xmlns="http://www.w3.org/2000/svg">
<rect width="200" height="62" fill="#070707"/>
<path d="M31.9006 24.3608C31.9479 23.1771 31.6023 22.2633 30.8636 21.6193C30.1345 20.9754 29.0313 20.6534 27.554 20.6534C26.5502 20.6534 25.679 20.7955 24.9403 21.0795C24.2017 21.3542 23.6098 21.7377 23.1648 22.2301C22.7292 22.7131 22.4593 23.2718 22.3551 23.9062C22.2509 24.4271 22.2841 24.8816 22.4545 25.2699C22.6345 25.6581 22.9138 25.9943 23.2926 26.2784C23.6809 26.553 24.1402 26.7945 24.6705 27.0028C25.2008 27.2017 25.7642 27.3722 26.3608 27.5142L28.8608 28.1392C30.0824 28.4233 31.1809 28.8021 32.1562 29.2756C33.1411 29.7491 33.965 30.3314 34.6278 31.0227C35.3002 31.714 35.7737 32.5284 36.0483 33.4659C36.3229 34.4034 36.3608 35.4782 36.1619 36.6903C35.8589 38.4706 35.1534 40.0142 34.0455 41.321C32.9375 42.6184 31.4839 43.6269 29.6847 44.3466C27.8854 45.0568 25.8021 45.4119 23.4347 45.4119C21.0862 45.4119 19.1023 45.0521 17.483 44.3324C15.8636 43.6127 14.6847 42.5473 13.946 41.1364C13.2169 39.7159 12.9991 37.9593 13.2926 35.8665H19.2443C19.1402 36.8419 19.2822 37.6562 19.6705 38.3097C20.0682 38.9536 20.66 39.4413 21.446 39.7727C22.232 40.0947 23.1553 40.2557 24.2159 40.2557C25.267 40.2557 26.1998 40.1042 27.0142 39.8011C27.8381 39.4981 28.5057 39.0767 29.017 38.5369C29.5284 37.9972 29.8409 37.3769 29.9545 36.6761C30.0682 36.0227 29.9688 35.4735 29.6562 35.0284C29.3438 34.5833 28.8419 34.2045 28.1506 33.892C27.4688 33.5701 26.6212 33.286 25.608 33.0398L22.5682 32.2443C20.2197 31.6477 18.4441 30.715 17.2415 29.446C16.0388 28.1771 15.608 26.4678 15.9489 24.3182C16.2519 22.5568 16.9858 21.018 18.1506 19.7017C19.3248 18.3759 20.8021 17.3485 22.5824 16.6193C24.3722 15.8807 26.3277 15.5114 28.4489 15.5114C30.608 15.5114 32.4309 15.8854 33.9176 16.6335C35.4044 17.3722 36.4886 18.4044 37.1705 19.7301C37.8523 21.0559 38.0606 22.5994 37.7955 24.3608H31.9006ZM48.6939 45.4261C46.4685 45.4261 44.6267 44.9527 43.1683 44.0057C41.71 43.0492 40.6825 41.7235 40.0859 40.0284C39.4988 38.3239 39.3899 36.34 39.7592 34.0767C40.1191 31.8419 40.8672 29.8864 42.0036 28.2102C43.1399 26.5341 44.584 25.232 46.3359 24.304C48.0878 23.3665 50.0623 22.8977 52.2592 22.8977C54.4751 22.8977 56.3123 23.3759 57.7706 24.3324C59.2289 25.2794 60.2564 26.6051 60.853 28.3097C61.4496 30.0142 61.5632 31.9981 61.1939 34.2614C60.8246 36.4867 60.067 38.4375 58.9212 40.1136C57.7753 41.7898 56.3312 43.0966 54.5888 44.0341C52.8464 44.9621 50.8814 45.4261 48.6939 45.4261ZM49.2905 40.7386C50.3132 40.7386 51.2176 40.4498 52.0036 39.8722C52.799 39.285 53.4572 38.4896 53.978 37.4858C54.5083 36.4725 54.8776 35.3267 55.0859 34.0483C55.2943 32.7888 55.3085 31.6714 55.1286 30.696C54.9486 29.7112 54.5698 28.9347 53.9922 28.3665C53.424 27.7983 52.6428 27.5142 51.6484 27.5142C50.6257 27.5142 49.7166 27.8078 48.9212 28.3949C48.1257 28.9725 47.4676 29.768 46.9467 30.7812C46.4259 31.7945 46.0613 32.9451 45.853 34.233C45.6541 35.483 45.6399 36.6004 45.8104 37.5852C45.9808 38.5606 46.3549 39.3324 46.9325 39.9006C47.5102 40.4593 48.2962 40.7386 49.2905 40.7386ZM73.1399 45.4261C70.8956 45.4261 69.049 44.9527 67.6001 44.0057C66.1607 43.0492 65.1522 41.7235 64.5746 40.0284C64.0064 38.3333 63.907 36.3826 64.2763 34.1761C64.6361 31.9413 65.389 29.9811 66.5348 28.2955C67.6806 26.6004 69.1342 25.2794 70.8956 24.3324C72.6664 23.3759 74.6551 22.8977 76.8615 22.8977C78.7649 22.8977 80.3748 23.2434 81.6911 23.9347C83.0073 24.6259 83.9732 25.5966 84.5888 26.8466C85.2043 28.0966 85.4126 29.5644 85.2138 31.25H79.5178C79.5272 30.1705 79.2479 29.2945 78.6797 28.6222C78.1115 27.9498 77.2782 27.6136 76.1797 27.6136C75.2327 27.6136 74.3615 27.8693 73.5661 28.3807C72.7801 28.8826 72.1125 29.6165 71.5632 30.5824C71.0234 31.5483 70.6446 32.7178 70.4268 34.0909C70.1996 35.483 70.1948 36.6667 70.4126 37.642C70.6304 38.6174 71.0471 39.3608 71.6626 39.8722C72.2782 40.3835 73.0547 40.6392 73.9922 40.6392C74.6929 40.6392 75.3416 40.4972 75.9382 40.2131C76.5443 39.929 77.0746 39.517 77.5291 38.9773C77.9837 38.428 78.334 37.7699 78.5803 37.0028H84.2905C83.9022 38.679 83.1967 40.1468 82.174 41.4062C81.1607 42.6657 79.8871 43.6506 78.353 44.3608C76.8189 45.071 75.0812 45.4261 73.1399 45.4261ZM86.8153 45L90.4517 23.1818H96.5028L92.8665 45H86.8153ZM94.1023 20.3409C93.2027 20.3409 92.4593 20.0426 91.8722 19.446C91.2945 18.84 91.0578 18.1203 91.1619 17.2869C91.2661 16.4347 91.6733 15.715 92.3835 15.1278C93.0938 14.5312 93.8987 14.233 94.7983 14.233C95.6979 14.233 96.4318 14.5312 97 15.1278C97.5682 15.715 97.8049 16.4347 97.7102 17.2869C97.6155 18.1203 97.2131 18.84 96.5028 19.446C95.8021 20.0426 95.0019 20.3409 94.1023 20.3409ZM103.879 45.4119C102.496 45.4119 101.298 45.1705 100.285 44.6875C99.281 44.1951 98.5424 43.4659 98.0689 42.5C97.5954 41.5341 97.477 40.3362 97.7138 38.9062C97.9221 37.6941 98.3151 36.6809 98.8928 35.8665C99.4799 35.0426 100.195 34.3797 101.038 33.8778C101.88 33.3759 102.813 32.9924 103.836 32.7273C104.868 32.4621 105.933 32.2822 107.032 32.1875C108.301 32.0549 109.333 31.9271 110.129 31.804C110.933 31.6809 111.535 31.5057 111.933 31.2784C112.33 31.0417 112.572 30.6913 112.657 30.2273V30.142C112.799 29.2519 112.633 28.5606 112.16 28.0682C111.696 27.5663 110.952 27.3153 109.93 27.3153C108.85 27.3153 107.932 27.5521 107.174 28.0256C106.426 28.4991 105.891 29.1004 105.569 29.8295L100.058 29.375C100.55 28.0492 101.293 26.9034 102.288 25.9375C103.291 24.9621 104.499 24.214 105.91 23.6932C107.321 23.1629 108.902 22.8977 110.654 22.8977C111.866 22.8977 112.998 23.0398 114.049 23.3239C115.11 23.608 116.023 24.0483 116.79 24.6449C117.567 25.2415 118.126 26.0085 118.467 26.946C118.817 27.8741 118.888 28.9867 118.68 30.2841L116.222 45H110.484L110.995 41.9744H110.825C110.361 42.6562 109.792 43.2576 109.12 43.7784C108.448 44.2898 107.676 44.6922 106.805 44.9858C105.933 45.2699 104.958 45.4119 103.879 45.4119ZM106.308 41.2358C107.188 41.2358 107.998 41.0606 108.737 40.7102C109.485 40.3504 110.1 39.8674 110.583 39.2614C111.076 38.6553 111.388 37.9687 111.521 37.2017L111.89 34.8864C111.701 35.0095 111.426 35.1184 111.066 35.2131C110.716 35.3078 110.332 35.3977 109.915 35.483C109.508 35.5587 109.096 35.6297 108.68 35.696C108.263 35.7528 107.889 35.8097 107.558 35.8665C106.828 35.9706 106.175 36.1364 105.597 36.3636C105.02 36.5909 104.551 36.8987 104.191 37.2869C103.831 37.6657 103.609 38.1392 103.523 38.7074C103.391 39.5312 103.585 40.161 104.106 40.5966C104.636 41.0227 105.37 41.2358 106.308 41.2358ZM131.798 15.9091L126.968 45H120.917L125.746 15.9091H131.798ZM131.815 45L135.452 23.1818H141.503L137.866 45H131.815ZM139.102 20.3409C138.203 20.3409 137.459 20.0426 136.872 19.446C136.295 18.84 136.058 18.1203 136.162 17.2869C136.266 16.4347 136.673 15.715 137.384 15.1278C138.094 14.5312 138.899 14.233 139.798 14.233C140.698 14.233 141.432 14.5312 142 15.1278C142.568 15.715 142.805 16.4347 142.71 17.2869C142.616 18.1203 142.213 18.84 141.503 19.446C140.802 20.0426 140.002 20.3409 139.102 20.3409ZM157.955 23.1818L157.202 27.7273H144.049L144.816 23.1818H157.955ZM148.651 17.9545H154.702L151.322 38.2955C151.227 38.8542 151.241 39.2898 151.364 39.6023C151.487 39.9053 151.691 40.1184 151.975 40.2415C152.269 40.3646 152.619 40.4261 153.026 40.4261C153.31 40.4261 153.599 40.4025 153.893 40.3551C154.186 40.2983 154.409 40.2557 154.56 40.2273L154.788 44.7301C154.447 44.8343 153.987 44.9479 153.41 45.071C152.842 45.1941 152.169 45.2699 151.393 45.2983C149.915 45.3551 148.665 45.161 147.643 44.7159C146.62 44.2614 145.886 43.5653 145.441 42.6278C144.996 41.6903 144.901 40.5114 145.157 39.0909L148.651 17.9545ZM167.913 45.4261C165.678 45.4261 163.826 44.9716 162.359 44.0625C160.891 43.1439 159.859 41.8466 159.262 40.1705C158.675 38.4848 158.576 36.4915 158.964 34.1903C159.343 31.946 160.105 29.9763 161.251 28.2812C162.406 26.5862 163.855 25.2652 165.597 24.3182C167.34 23.3712 169.281 22.8977 171.421 22.8977C172.861 22.8977 174.163 23.1297 175.327 23.5938C176.502 24.0483 177.477 24.7396 178.254 25.6676C179.03 26.5862 179.56 27.7367 179.844 29.1193C180.138 30.5019 180.133 32.1212 179.83 33.9773L179.56 35.6392H161.151L161.734 31.8892H174.461C174.603 31.018 174.546 30.2462 174.29 29.5739C174.035 28.9015 173.609 28.3759 173.012 27.9972C172.415 27.6089 171.682 27.4148 170.81 27.4148C169.92 27.4148 169.087 27.6326 168.31 28.0682C167.534 28.5038 166.88 29.0767 166.35 29.7869C165.829 30.4877 165.493 31.25 165.342 32.0739L164.674 35.7955C164.485 36.9413 164.522 37.893 164.788 38.6506C165.062 39.4081 165.536 39.9763 166.208 40.3551C166.88 40.7244 167.733 40.9091 168.765 40.9091C169.437 40.9091 170.067 40.8144 170.654 40.625C171.251 40.4356 171.781 40.1562 172.245 39.7869C172.709 39.4081 173.088 38.9394 173.381 38.3807L178.907 38.75C178.396 40.0947 177.619 41.2689 176.577 42.2727C175.536 43.267 174.281 44.0436 172.813 44.6023C171.355 45.1515 169.721 45.4261 167.913 45.4261Z" fill="white"/>
</svg>
